# xmcd
#
# Track frame offsets:
#	180
#	23218
#	41339
#	64162
#	88994
#	119798
#	154937
#	171489
#	202030
#	218928
#	238047
#	258193
#	283785
#	307751
#
# Disc length: 4384 seconds
#
# Revision: 1
# Processed by: cddbd v1.4PL0 Copyright (c) Steve Scherf et al.
# Submitted via: audiograbber 1.80
#
DISCID=d1111e0e
DTITLE=Barclay James Harvest - Greatest Hits
DYEAR=1900
DGENRE=
TTITLE0=Hymn
TTITLE1=Loving Is Easy
TTITLE2=Child Of The Universe
TTITLE3=Victims Of Circumstance
TTITLE4=Poor Man`s Moody Blues
TTITLE5=Mockingbird
TTITLE6=Life Is For Living
TTITLE7=Ring Of Changes
TTITLE8=Titles
TTITLE9=Welcome To The Show
TTITLE10=Sip Of Wine
TTITLE11=John Lennon`s Guitar
TTITLE12=Rock`n`roll Star
TTITLE13=love on the line
EXTD=
EXTT0=
EXTT1=
EXTT2=
EXTT3=
EXTT4=
EXTT5=
EXTT6=
EXTT7=
EXTT8=
EXTT9=
EXTT10=
EXTT11=
EXTT12=
EXTT13=
PLAYORDER=
